<svg xmlns="http://www.w3.org/2000/svg" xmlns:xlink="http://www.w3.org/1999/xlink" width="1080" zoomAndPan="magnify" viewBox="0 0 810 809.999993" height="1080" preserveAspectRatio="xMidYMid meet" version="1.2"><defs><clipPath id="b8dd326e4d"><path d="M 0 136.132812 L 810 136.132812 L 810 673.882812 L 0 673.882812 Z M 0 136.132812 "/></clipPath></defs><g id="b600b0ee33"><rect x="0" width="810" y="0" height="809.999993" style="fill:#ffffff;fill-opacity:1;stroke:none;"/><rect x="0" width="810" y="0" height="809.999993" style="fill:#faffff;fill-opacity:1;stroke:none;"/><g clip-rule="nonzero" clip-path="url(#b8dd326e4d)"><path style=" stroke:none;fill-rule:nonzero;fill:#faffff;fill-opacity:1;" d="M 0.00390625 136.132812 L 809.996094 136.132812 L 809.996094 673.882812 L 0.00390625 673.882812 Z M 0.00390625 136.132812 "/></g><path style=" stroke:none;fill-rule:nonzero;fill:#183e3e;fill-opacity:1;" d="M 396.707031 281.632812 L 406.40625 281.410156 C 420.777344 281.34375 430.824219 281.929688 444.351562 287.269531 C 452.648438 292.695312 452.648438 292.695312 457.539062 298.652344 C 460.429688 310.210938 458.832031 318.585938 456.050781 330.132812 C 449.941406 341.898438 444.957031 348.863281 433.941406 356.257812 C 415.21875 363.335938 397.089844 361.089844 377.347656 360.066406 C 361.761719 359.605469 349.621094 360.058594 335.390625 366.851562 C 318.519531 376.5625 308.078125 389.488281 298.21875 406.070312 C 293.492188 426.394531 294.570312 446.164062 299.921875 466.273438 C 308.804688 492.511719 321.839844 513.824219 342.253906 532.640625 C 352.460938 541.523438 361.449219 547.210938 374.371094 551.359375 C 383.429688 552.875 383.429688 552.875 392.453125 553.488281 L 401.554688 554.257812 L 408.402344 554.761719 L 408.402344 578.585938 C 392.40625 585.800781 379.269531 587.015625 361.859375 586.671875 C 338.453125 584.027344 317.332031 575.421875 297.542969 562.777344 C 289.933594 557.085938 282.644531 551.007812 275.671875 544.550781 L 270.167969 539.496094 C 254.902344 524.964844 243.65625 509.664062 232.917969 491.585938 L 228.035156 483.527344 C 216.210938 463.574219 206.867188 443.523438 198.804688 421.746094 C 193.21875 410.210938 186.507812 403.277344 176.976562 394.800781 C 169.578125 389.566406 169.578125 389.566406 159.960938 387.992188 C 143.375 388.277344 127.613281 390.699219 111.675781 395.222656 C 98.699219 398.203125 98.699219 398.203125 86.363281 398.417969 C 74.707031 394.746094 71.222656 392.386719 63.179688 383.738281 C 57.316406 376.03125 54.542969 371.300781 52.117188 361.828125 C 54.457031 353.957031 54.457031 353.957031 60.90625 347.429688 C 75.324219 337.761719 90.308594 333.179688 106.78125 328.003906 C 109.914062 326.984375 113.046875 325.96875 116.277344 324.921875 C 125.148438 322.066406 134.039062 319.265625 142.945312 316.519531 L 149.988281 314.246094 C 161.230469 310.75 170.023438 308.984375 181.65625 310.988281 C 208.660156 315.304688 208.660156 315.304688 235.007812 310.308594 C 243.945312 305.335938 251.421875 299.929688 258.65625 292.695312 C 303.640625 282.847656 350.816406 282.214844 396.707031 281.632812 "/><path style=" stroke:none;fill-rule:nonzero;fill:#65dfa7;fill-opacity:1;" d="M 473.066406 306.308594 C 482.777344 306.792969 492.492188 307.289062 502.210938 307.800781 L 510.457031 308.203125 C 543.441406 309.953125 543.441406 309.953125 558.148438 313.117188 C 566.191406 318.539062 566.191406 318.539062 572.828125 325.027344 C 581.730469 333.78125 581.730469 333.78125 592.183594 340.34375 C 602.46875 341.410156 612.53125 341.433594 622.8125 340.34375 L 632.8125 334.8125 C 643.234375 330.132812 643.234375 330.132812 650.21875 330.703125 C 673.78125 335.726562 696.527344 342.527344 719.382812 350.128906 L 730.375 353.625 L 740.945312 357.121094 L 750.441406 360.230469 C 760.164062 364.734375 765.8125 369.492188 772.558594 377.78125 C 772.773438 387.78125 772.773438 387.78125 769.15625 398.203125 C 761.703125 406.804688 755.542969 413.519531 745.332031 418.625 C 731.03125 419.351562 720.566406 419.367188 706.835938 415.21875 C 690.234375 410.71875 673.929688 409.472656 656.847656 411.816406 C 646.976562 416.671875 640.890625 420.515625 634.527344 429.574219 L 630.070312 438.324219 L 624.980469 448.046875 C 623.28125 451.390625 621.585938 454.742188 619.835938 458.1875 C 599.558594 497.839844 575.464844 535.890625 538.085938 561.519531 C 513.753906 576.332031 495.175781 584.832031 466.820312 585.875 C 445.898438 586.199219 425.640625 586.011719 405 581.992188 L 408.402344 554.761719 L 415.515625 554.617188 C 436.046875 553.574219 451.726562 550.667969 469.238281 539.660156 C 493.578125 521.757812 507.4375 502.5625 520.273438 475.246094 C 526.625 460.414062 528.167969 448.980469 528.371094 432.875 L 528.636719 420.472656 C 527.410156 407.207031 524.230469 399.296875 517.308594 387.992188 C 507.816406 377.5625 496.265625 369.625 483.277344 364.167969 C 474.480469 362.636719 474.480469 362.636719 465.410156 362.039062 L 456.210938 361.269531 L 449.242188 360.765625 L 452.089844 355.285156 C 456.789062 345.632812 460.886719 335.804688 464.984375 325.878906 L 469.585938 314.761719 Z M 473.066406 306.308594 "/><path style=" stroke:none;fill-rule:nonzero;fill:#183e3e;fill-opacity:1;" d="M 215.863281 188.703125 C 226.378906 190.96875 231.769531 194.71875 239.9375 201.652344 C 248.382812 209.75 254.523438 217.023438 258.65625 228.027344 C 260.609375 246.238281 260.515625 263.390625 254.617188 280.78125 C 246.335938 292.203125 237.234375 300 224.625 306.308594 C 213.5625 307.375 213.5625 307.375 200.800781 306.308594 C 184.355469 297.753906 174.253906 286.898438 163.363281 272.273438 C 158.40625 257.402344 158.304688 243.570312 159.960938 228.027344 C 164.257812 214.109375 170.203125 203.972656 180.804688 193.992188 C 192.851562 189.804688 203.113281 188.359375 215.859375 188.703125 "/><path style=" stroke:none;fill-rule:nonzero;fill:#65dfa7;fill-opacity:1;" d="M 626.214844 217.816406 C 637.132812 222.640625 642.894531 227.652344 650.890625 236.539062 C 657.0625 245.351562 659.855469 252.078125 661.179688 262.742188 C 661.691406 275.253906 661.859375 285.589844 656.804688 297.214844 C 650.011719 308.230469 642.765625 318.140625 633.023438 326.730469 C 620.308594 330.964844 608.789062 331.863281 595.585938 330.132812 C 584.636719 325.078125 577.90625 320.363281 570.886719 310.507812 C 564.304688 298.820312 561.550781 289.269531 559.640625 275.886719 C 560.484375 261.566406 565.863281 250.320312 573.292969 238.199219 C 578.496094 231.527344 582.957031 227.246094 590.054688 222.710938 C 603.515625 217.371094 611.886719 215.960938 626.214844 217.816406 "/><path style=" stroke:none;fill-rule:nonzero;fill:#faffff;fill-opacity:1;" d="M 422.015625 306.308594 C 432.226562 305.882812 432.226562 305.882812 442.4375 306.308594 L 445.839844 309.710938 C 445.414062 320.773438 445.414062 320.773438 442.4375 333.535156 C 434.355469 343.535156 434.355469 343.535156 425.421875 350.554688 L 415.210938 350.554688 C 415.6875 343.816406 416.183594 337.078125 416.699219 330.347656 C 416.972656 326.59375 417.253906 322.84375 417.539062 318.980469 L 418.613281 309.710938 Z M 422.015625 306.308594 "/></g></svg>